G04*
G04 #@! TF.GenerationSoftware,Altium Limited,Altium Designer,25.5.2 (35)*
G04*
G04 Layer_Color=16711935*
%FSLAX43Y43*%
%MOMM*%
G71*
G04*
G04 #@! TF.SameCoordinates,128D87EA-3B7D-471D-9151-A49BA8F44CF5*
G04*
G04*
G04 #@! TF.FilePolarity,Negative*
G04*
G01*
G75*
%ADD15C,0.500*%
%ADD31C,1.120*%
%ADD32C,3.590*%
%ADD33C,1.290*%
%ADD34C,1.640*%
%ADD35R,1.640X1.640*%
%ADD43R,1.700X0.800*%
%ADD44R,0.800X1.700*%
D15*
X20000Y31730D02*
G03*
X18730Y33000I-1270J0D01*
G01*
X1270D02*
G03*
X0Y31730I0J-1270D01*
G01*
X18730Y0D02*
G03*
X20000Y1270I0J1270D01*
G01*
X0D02*
G03*
X1270Y0I1270J0D01*
G01*
X1270Y33000D02*
X18730D01*
X-0Y1270D02*
X0Y31730D01*
X20000Y1270D02*
X20000Y31730D01*
X1270Y0D02*
X18730D01*
D31*
X19000Y30410D02*
D03*
X15715Y12399D02*
D03*
X999Y30410D02*
D03*
X4285Y12399D02*
D03*
X5555Y12399D02*
D03*
X14445Y12399D02*
D03*
X999Y13900D02*
D03*
Y15170D02*
D03*
Y16440D02*
D03*
Y17710D02*
D03*
Y18980D02*
D03*
Y20250D02*
D03*
Y21520D02*
D03*
Y22790D02*
D03*
Y24060D02*
D03*
Y25330D02*
D03*
Y26600D02*
D03*
Y27870D02*
D03*
Y29140D02*
D03*
X19000Y13900D02*
D03*
Y15170D02*
D03*
Y16440D02*
D03*
Y17710D02*
D03*
Y18980D02*
D03*
Y20250D02*
D03*
Y21520D02*
D03*
Y22790D02*
D03*
Y24060D02*
D03*
Y25330D02*
D03*
Y26600D02*
D03*
Y27870D02*
D03*
Y29140D02*
D03*
D32*
X16000Y28250D02*
D03*
X4000Y8250D02*
D03*
D33*
X5250Y27000D02*
D03*
Y24500D02*
D03*
X13750Y30750D02*
D03*
D34*
X8830Y1500D02*
D03*
X11370D02*
D03*
X6290D02*
D03*
X13910D02*
D03*
X16450D02*
D03*
D35*
X3750D02*
D03*
D43*
X16500Y9200D02*
D03*
Y5800D02*
D03*
D44*
X4450Y4250D02*
D03*
X1050D02*
D03*
M02*
