G04*
G04 #@! TF.GenerationSoftware,Altium Limited,Altium Designer,25.5.2 (35)*
G04*
G04 Layer_Physical_Order=2*
G04 Layer_Color=36540*
%FSLAX43Y43*%
%MOMM*%
G71*
G04*
G04 #@! TF.SameCoordinates,128D87EA-3B7D-471D-9151-A49BA8F44CF5*
G04*
G04*
G04 #@! TF.FilePolarity,Positive*
G04*
G01*
G75*
%ADD12C,0.150*%
%ADD15C,0.500*%
%ADD31C,1.120*%
%ADD38C,3.500*%
%ADD39C,1.200*%
%ADD40C,1.550*%
%ADD42C,0.600*%
G36*
X741Y32200D02*
Y32000D01*
X760Y31902D01*
X815Y31820D01*
X898Y31764D01*
X995Y31745D01*
X8779D01*
X8850Y31639D01*
X8837Y31609D01*
Y31391D01*
X8921Y31188D01*
X9076Y31034D01*
X9278Y30950D01*
X9497D01*
X9699Y31034D01*
X9750Y31085D01*
X9801Y31034D01*
X10003Y30950D01*
X10222D01*
X10424Y31034D01*
X10579Y31188D01*
X10663Y31391D01*
Y31609D01*
X10650Y31639D01*
X10721Y31745D01*
X19004D01*
X19102Y31765D01*
X19184Y31820D01*
X19240Y31902D01*
X19259Y32000D01*
Y32200D01*
X19634D01*
X19706Y32026D01*
X19745Y31830D01*
Y31061D01*
X19618Y31008D01*
X19528Y31098D01*
X19332Y31211D01*
X19150Y31260D01*
Y30410D01*
X19000D01*
Y30260D01*
X18150D01*
X18199Y30078D01*
X18312Y29882D01*
X18454Y29740D01*
X18352Y29637D01*
X18245Y29453D01*
X18190Y29247D01*
Y29033D01*
X18245Y28827D01*
X18352Y28643D01*
X18489Y28505D01*
X18352Y28367D01*
X18245Y28183D01*
X18190Y27977D01*
Y27890D01*
X18185Y27866D01*
X18185Y27787D01*
X18177Y27650D01*
X18170Y27599D01*
X18162Y27554D01*
X18153Y27518D01*
X18144Y27492D01*
X18137Y27477D01*
X18136Y27475D01*
X17964Y27303D01*
X17856Y27374D01*
X17971Y27652D01*
X18050Y28048D01*
Y28100D01*
X16150D01*
Y26200D01*
X16202D01*
X16598Y26279D01*
X16876Y26394D01*
X16947Y26286D01*
X16493Y25831D01*
X15750D01*
X15623Y25806D01*
X15516Y25734D01*
X13863Y24081D01*
X12500D01*
X12373Y24056D01*
X12266Y23984D01*
X11580Y23299D01*
X11516Y23308D01*
X11466Y23438D01*
X11550Y23641D01*
Y23859D01*
X11466Y24062D01*
X11312Y24216D01*
X11109Y24300D01*
X10891D01*
X10688Y24216D01*
X10534Y24062D01*
X10450Y23859D01*
Y23641D01*
X10534Y23438D01*
X10590Y23383D01*
X10537Y23256D01*
X9338D01*
X9182Y23411D01*
X9075Y23483D01*
X8948Y23508D01*
X7542D01*
X7415Y23483D01*
X7308Y23411D01*
X6516Y22619D01*
X6444Y22512D01*
X6424Y22412D01*
X6365Y22394D01*
X6328Y22391D01*
X6295Y22393D01*
X6234Y22484D01*
X5196Y23523D01*
X5248Y23650D01*
X5362D01*
X5578Y23708D01*
X5772Y23820D01*
X5930Y23978D01*
X6042Y24172D01*
X6100Y24388D01*
Y24612D01*
X6042Y24828D01*
X5930Y25022D01*
X5772Y25180D01*
X5578Y25292D01*
X5362Y25350D01*
X5138D01*
X4922Y25292D01*
X4728Y25180D01*
X4570Y25022D01*
X4458Y24828D01*
X4400Y24612D01*
Y24498D01*
X4273Y24446D01*
X3581Y25137D01*
Y27211D01*
X3654Y27260D01*
X3673Y27270D01*
X3706Y27277D01*
X3891Y27200D01*
X4109D01*
X4257Y27261D01*
X4364Y27170D01*
X4358Y27150D01*
X5100D01*
Y27892D01*
X4903Y27839D01*
X4697Y27720D01*
X4677Y27700D01*
X4550Y27752D01*
Y27859D01*
X4466Y28062D01*
X4312Y28216D01*
X4109Y28300D01*
X3891D01*
X3688Y28216D01*
X3534Y28062D01*
X3450Y27859D01*
Y27698D01*
X3323Y27646D01*
X2864Y28104D01*
X2757Y28176D01*
X2630Y28201D01*
X1890D01*
X1887Y28202D01*
X1871Y28208D01*
X1847Y28220D01*
X1815Y28239D01*
X1778Y28265D01*
X1737Y28296D01*
X1635Y28388D01*
X1603Y28419D01*
X1578Y28545D01*
X1577Y28572D01*
X1648Y28643D01*
X1754Y28827D01*
X1809Y29033D01*
Y29247D01*
X1754Y29453D01*
X1648Y29637D01*
X1545Y29740D01*
X1688Y29882D01*
X1801Y30078D01*
X1850Y30260D01*
X999D01*
Y30410D01*
X849D01*
Y31260D01*
X667Y31211D01*
X471Y31098D01*
X382Y31009D01*
X255Y31061D01*
Y31830D01*
X294Y32026D01*
X366Y32200D01*
X741D01*
D02*
G37*
G36*
X1460Y28202D02*
X1574Y28100D01*
X1627Y28059D01*
X1677Y28024D01*
X1725Y27996D01*
X1770Y27974D01*
X1813Y27958D01*
X1853Y27948D01*
X1890Y27945D01*
Y27795D01*
X1853Y27792D01*
X1813Y27782D01*
X1770Y27766D01*
X1725Y27744D01*
X1677Y27716D01*
X1627Y27681D01*
X1574Y27640D01*
X1460Y27538D01*
X1399Y27478D01*
Y28262D01*
X1460Y28202D01*
D02*
G37*
G36*
X18994Y27310D02*
X18909Y27310D01*
X18757Y27301D01*
X18690Y27292D01*
X18630Y27281D01*
X18576Y27268D01*
X18528Y27252D01*
X18487Y27233D01*
X18452Y27211D01*
X18423Y27187D01*
X18317Y27293D01*
X18341Y27322D01*
X18363Y27357D01*
X18382Y27398D01*
X18398Y27446D01*
X18411Y27500D01*
X18422Y27560D01*
X18431Y27627D01*
X18440Y27779D01*
X18440Y27864D01*
X18994Y27310D01*
D02*
G37*
G36*
X18503Y26343D02*
X18493Y26359D01*
X18480Y26374D01*
X18466Y26387D01*
X18449Y26399D01*
X18430Y26408D01*
X18409Y26416D01*
X18386Y26422D01*
X18360Y26427D01*
X18333Y26429D01*
X18303Y26430D01*
Y26580D01*
X18328Y26581D01*
X18350Y26584D01*
X18370Y26589D01*
X18388Y26596D01*
X18403Y26604D01*
X18416Y26615D01*
X18427Y26627D01*
X18435Y26642D01*
X18441Y26658D01*
X18445Y26677D01*
X18503Y26343D01*
D02*
G37*
G36*
X18600Y24938D02*
X18539Y24998D01*
X18425Y25100D01*
X18372Y25141D01*
X18322Y25176D01*
X18274Y25204D01*
X18229Y25226D01*
X18186Y25242D01*
X18146Y25252D01*
X18109Y25255D01*
Y25405D01*
X18146Y25408D01*
X18186Y25418D01*
X18229Y25434D01*
X18274Y25456D01*
X18322Y25484D01*
X18372Y25519D01*
X18425Y25560D01*
X18539Y25662D01*
X18600Y25722D01*
Y24938D01*
D02*
G37*
G36*
Y23668D02*
X18539Y23728D01*
X18425Y23830D01*
X18372Y23871D01*
X18322Y23906D01*
X18274Y23934D01*
X18229Y23956D01*
X18186Y23972D01*
X18146Y23982D01*
X18109Y23985D01*
Y24135D01*
X18146Y24138D01*
X18186Y24148D01*
X18229Y24164D01*
X18274Y24186D01*
X18322Y24214D01*
X18372Y24249D01*
X18425Y24290D01*
X18539Y24392D01*
X18600Y24452D01*
Y23668D01*
D02*
G37*
G36*
X1460Y24392D02*
X1574Y24290D01*
X1627Y24249D01*
X1677Y24214D01*
X1725Y24186D01*
X1770Y24164D01*
X1813Y24148D01*
X1853Y24138D01*
X1890Y24135D01*
Y23985D01*
X1853Y23982D01*
X1813Y23972D01*
X1770Y23956D01*
X1725Y23934D01*
X1677Y23906D01*
X1627Y23871D01*
X1574Y23830D01*
X1460Y23728D01*
X1399Y23668D01*
Y24452D01*
X1460Y24392D01*
D02*
G37*
G36*
X18994Y22230D02*
X18909Y22230D01*
X18757Y22221D01*
X18690Y22212D01*
X18630Y22201D01*
X18576Y22188D01*
X18528Y22172D01*
X18487Y22153D01*
X18452Y22131D01*
X18423Y22107D01*
X18317Y22213D01*
X18341Y22242D01*
X18363Y22277D01*
X18382Y22318D01*
X18398Y22366D01*
X18411Y22420D01*
X18422Y22480D01*
X18431Y22547D01*
X18440Y22699D01*
X18440Y22784D01*
X18994Y22230D01*
D02*
G37*
G36*
X7991Y22434D02*
X8043Y22391D01*
X8069Y22374D01*
X8094Y22359D01*
X8120Y22347D01*
X8145Y22337D01*
X8171Y22330D01*
X8196Y22326D01*
X8220Y22325D01*
Y22175D01*
X8196Y22174D01*
X8171Y22170D01*
X8145Y22163D01*
X8120Y22153D01*
X8094Y22141D01*
X8069Y22126D01*
X8043Y22109D01*
X8017Y22089D01*
X7991Y22066D01*
X7964Y22040D01*
Y22460D01*
X7991Y22434D01*
D02*
G37*
G36*
X8489Y19119D02*
X8509Y19104D01*
X8532Y19091D01*
X8557Y19080D01*
X8583Y19070D01*
X8612Y19063D01*
X8643Y19057D01*
X8675Y19053D01*
X8710Y19051D01*
X8747Y19050D01*
X8450Y18753D01*
X8450Y18790D01*
X8443Y18857D01*
X8437Y18888D01*
X8430Y18917D01*
X8420Y18943D01*
X8409Y18968D01*
X8396Y18991D01*
X8381Y19011D01*
X8364Y19030D01*
X8470Y19136D01*
X8489Y19119D01*
D02*
G37*
G36*
X13051Y18950D02*
X13056Y18925D01*
X13063Y18900D01*
X13073Y18875D01*
X13085Y18851D01*
X13101Y18826D01*
X13119Y18802D01*
X13141Y18778D01*
X13165Y18755D01*
X13191Y18731D01*
X12773Y18696D01*
X12797Y18725D01*
X12838Y18782D01*
X12854Y18809D01*
X12868Y18836D01*
X12880Y18863D01*
X12889Y18889D01*
X12895Y18914D01*
X12899Y18939D01*
X12900Y18963D01*
X13050Y18976D01*
X13051Y18950D01*
D02*
G37*
G36*
X2919Y27113D02*
Y25000D01*
X2944Y24873D01*
X3016Y24766D01*
X5669Y22113D01*
Y18750D01*
X5674Y18725D01*
X5557Y18662D01*
X2881Y21337D01*
Y21621D01*
X2856Y21748D01*
X2784Y21856D01*
X2581Y22059D01*
Y23750D01*
X2556Y23877D01*
X2484Y23984D01*
X2174Y24294D01*
X2067Y24366D01*
X1940Y24391D01*
X1890D01*
X1887Y24392D01*
X1871Y24398D01*
X1847Y24410D01*
X1815Y24429D01*
X1778Y24455D01*
X1737Y24486D01*
X1635Y24578D01*
X1603Y24609D01*
X1578Y24735D01*
X1577Y24762D01*
X1648Y24833D01*
X1754Y25017D01*
X1809Y25223D01*
Y25437D01*
X1754Y25643D01*
X1648Y25827D01*
X1510Y25965D01*
X1648Y26103D01*
X1754Y26287D01*
X1809Y26493D01*
Y26707D01*
X1754Y26913D01*
X1648Y27097D01*
X1577Y27168D01*
X1578Y27195D01*
X1603Y27321D01*
X1635Y27352D01*
X1737Y27444D01*
X1778Y27475D01*
X1815Y27501D01*
X1847Y27520D01*
X1871Y27532D01*
X1887Y27538D01*
X1890Y27539D01*
X2493D01*
X2919Y27113D01*
D02*
G37*
G36*
X1460Y19312D02*
X1574Y19210D01*
X1627Y19169D01*
X1677Y19134D01*
X1725Y19106D01*
X1770Y19084D01*
X1813Y19068D01*
X1853Y19058D01*
X1890Y19055D01*
Y18905D01*
X1853Y18902D01*
X1813Y18892D01*
X1770Y18876D01*
X1725Y18854D01*
X1677Y18826D01*
X1627Y18791D01*
X1574Y18750D01*
X1460Y18648D01*
X1399Y18588D01*
Y19372D01*
X1460Y19312D01*
D02*
G37*
G36*
X16380Y25051D02*
X14016Y22687D01*
X13944Y22579D01*
X13919Y22452D01*
Y16637D01*
X12766Y15484D01*
X12694Y15377D01*
X12669Y15250D01*
Y12025D01*
X12542Y11975D01*
X12359Y12050D01*
X12141D01*
X11938Y11966D01*
X11878Y11905D01*
X11858Y11893D01*
X11836Y11872D01*
X11821Y11858D01*
X11807Y11847D01*
X11796Y11840D01*
X11787Y11835D01*
X11781Y11832D01*
X11780Y11831D01*
X11590D01*
X11550Y11891D01*
Y12109D01*
X11466Y12312D01*
X11312Y12466D01*
X11310Y12467D01*
X11300Y12608D01*
X11423Y12731D01*
X11507Y12934D01*
Y13118D01*
X11609Y13213D01*
X11641Y13200D01*
X11859D01*
X12062Y13284D01*
X12216Y13438D01*
X12300Y13641D01*
Y13859D01*
X12216Y14062D01*
X12062Y14216D01*
X11859Y14300D01*
X11641D01*
X11438Y14216D01*
X11378Y14155D01*
X11358Y14143D01*
X11336Y14122D01*
X11321Y14108D01*
X11307Y14097D01*
X11296Y14090D01*
X11287Y14085D01*
X11281Y14082D01*
X11280Y14081D01*
X11137D01*
X6331Y18887D01*
Y20580D01*
X6357Y20590D01*
X6458Y20601D01*
X6516Y20516D01*
X8183Y18848D01*
X8184Y18847D01*
X8186Y18841D01*
X8189Y18831D01*
X8190Y18821D01*
X8195Y18776D01*
X8195Y18749D01*
X8200Y18727D01*
Y18641D01*
X8284Y18438D01*
X8438Y18284D01*
X8641Y18200D01*
X8859D01*
X9062Y18284D01*
X9216Y18438D01*
X9300Y18641D01*
Y18859D01*
X9216Y19062D01*
X9062Y19216D01*
X8956Y19260D01*
X8981Y19387D01*
X9069D01*
X9271Y19471D01*
X9426Y19626D01*
X9510Y19828D01*
Y20046D01*
X9426Y20249D01*
X9375Y20300D01*
X9426Y20351D01*
X9510Y20553D01*
Y20771D01*
X9426Y20974D01*
X9271Y21128D01*
X9069Y21212D01*
X8850D01*
X8677Y21140D01*
X8585Y21181D01*
X8550Y21210D01*
Y21359D01*
X8466Y21562D01*
X8312Y21716D01*
X8284Y21728D01*
X8251Y21785D01*
X8236Y21874D01*
X8273Y21919D01*
X9613D01*
X12618Y18913D01*
X12595Y18881D01*
X12577Y18859D01*
X12572Y18849D01*
X12534Y18812D01*
X12450Y18609D01*
Y18391D01*
X12534Y18188D01*
X12688Y18034D01*
X12891Y17950D01*
X13109D01*
X13312Y18034D01*
X13466Y18188D01*
X13550Y18391D01*
Y18609D01*
X13466Y18812D01*
X13374Y18904D01*
X13359Y18923D01*
X13338Y18941D01*
X13326Y18954D01*
X13316Y18964D01*
X13310Y18972D01*
X13306Y18978D01*
X13306Y18978D01*
Y19025D01*
X13281Y19152D01*
X13209Y19259D01*
X10003Y22466D01*
X10018Y22540D01*
X10051Y22593D01*
X11674D01*
X11801Y22618D01*
X11908Y22690D01*
X12637Y23419D01*
X14000D01*
X14127Y23444D01*
X14234Y23516D01*
X15887Y25169D01*
X16332D01*
X16380Y25051D01*
D02*
G37*
G36*
X1919Y22600D02*
Y21921D01*
X1944Y21795D01*
X2016Y21687D01*
X2219Y21484D01*
Y21200D01*
X2244Y21073D01*
X2316Y20966D01*
X6427Y16854D01*
X6346Y16756D01*
X6271Y16806D01*
X6144Y16831D01*
X3387D01*
X3111Y17107D01*
X3123Y17195D01*
X3247Y17259D01*
X3391Y17200D01*
X3609D01*
X3812Y17284D01*
X3966Y17438D01*
X4050Y17641D01*
Y17859D01*
X3966Y18062D01*
X3812Y18216D01*
X3609Y18300D01*
X3391D01*
X3199Y18221D01*
X3180Y18220D01*
X3060Y18268D01*
X3056Y18289D01*
X2984Y18396D01*
X2484Y18896D01*
X2484Y18896D01*
X2166Y19214D01*
X2059Y19286D01*
X1932Y19311D01*
X1890D01*
X1887Y19312D01*
X1871Y19318D01*
X1847Y19330D01*
X1815Y19349D01*
X1778Y19375D01*
X1737Y19406D01*
X1635Y19498D01*
X1603Y19529D01*
X1578Y19655D01*
X1577Y19682D01*
X1648Y19753D01*
X1754Y19937D01*
X1809Y20143D01*
Y20357D01*
X1754Y20563D01*
X1648Y20747D01*
X1510Y20885D01*
X1648Y21023D01*
X1754Y21207D01*
X1809Y21413D01*
Y21627D01*
X1754Y21833D01*
X1648Y22017D01*
X1510Y22155D01*
X1648Y22293D01*
X1754Y22477D01*
X1792Y22617D01*
X1919Y22600D01*
D02*
G37*
G36*
X16603Y24265D02*
X16669Y24223D01*
Y22637D01*
X15016Y20984D01*
X14944Y20877D01*
X14919Y20750D01*
Y16887D01*
X14699Y16667D01*
X14581Y16716D01*
Y22315D01*
X16545Y24278D01*
X16603Y24265D01*
D02*
G37*
G36*
X2016Y18428D02*
X2016Y18428D01*
X2419Y18025D01*
Y17000D01*
X2444Y16873D01*
X2516Y16766D01*
X3016Y16266D01*
X3123Y16194D01*
X3250Y16169D01*
X4620D01*
X4641Y16050D01*
X4438Y15966D01*
X4284Y15812D01*
X4200Y15609D01*
Y15391D01*
X4284Y15188D01*
X4438Y15034D01*
X4641Y14950D01*
X4859D01*
X5062Y15034D01*
X5216Y15188D01*
X5300Y15391D01*
Y15609D01*
X5216Y15812D01*
X5062Y15966D01*
X4859Y16050D01*
X4880Y16169D01*
X6007D01*
X7817Y14358D01*
X7764Y14231D01*
X1890D01*
X1887Y14232D01*
X1871Y14238D01*
X1847Y14250D01*
X1815Y14269D01*
X1778Y14295D01*
X1737Y14326D01*
X1635Y14418D01*
X1603Y14449D01*
X1578Y14575D01*
X1577Y14602D01*
X1648Y14673D01*
X1754Y14857D01*
X1809Y15063D01*
Y15277D01*
X1754Y15483D01*
X1648Y15667D01*
X1510Y15805D01*
X1648Y15943D01*
X1754Y16127D01*
X1809Y16333D01*
Y16547D01*
X1754Y16753D01*
X1648Y16937D01*
X1510Y17075D01*
X1648Y17213D01*
X1754Y17397D01*
X1809Y17603D01*
Y17817D01*
X1754Y18023D01*
X1648Y18207D01*
X1577Y18278D01*
X1578Y18305D01*
X1603Y18431D01*
X1635Y18462D01*
X1737Y18554D01*
X1778Y18585D01*
X1815Y18611D01*
X1826Y18618D01*
X2016Y18428D01*
D02*
G37*
G36*
X11536Y13540D02*
X11509Y13566D01*
X11457Y13609D01*
X11431Y13626D01*
X11406Y13641D01*
X11380Y13653D01*
X11355Y13663D01*
X11329Y13670D01*
X11304Y13674D01*
X11280Y13675D01*
Y13825D01*
X11304Y13826D01*
X11329Y13830D01*
X11355Y13837D01*
X11380Y13847D01*
X11406Y13859D01*
X11431Y13874D01*
X11457Y13891D01*
X11483Y13911D01*
X11509Y13934D01*
X11536Y13960D01*
Y13540D01*
D02*
G37*
G36*
X1460Y14232D02*
X1574Y14130D01*
X1627Y14089D01*
X1677Y14054D01*
X1725Y14026D01*
X1770Y14004D01*
X1813Y13988D01*
X1853Y13978D01*
X1890Y13975D01*
Y13825D01*
X1853Y13822D01*
X1813Y13812D01*
X1770Y13796D01*
X1725Y13774D01*
X1677Y13746D01*
X1627Y13711D01*
X1574Y13670D01*
X1460Y13568D01*
X1399Y13508D01*
Y14292D01*
X1460Y14232D01*
D02*
G37*
G36*
X14976Y15828D02*
X15034Y15688D01*
X15188Y15534D01*
X15391Y15450D01*
X15609D01*
X15792Y15525D01*
X15919Y15475D01*
Y14000D01*
X15944Y13873D01*
X16016Y13766D01*
X16419Y13363D01*
Y13091D01*
X16292Y13038D01*
X16243Y13087D01*
X16047Y13200D01*
X15865Y13249D01*
Y12399D01*
Y11549D01*
X15914Y11562D01*
X15980Y11448D01*
X15516Y10984D01*
X15444Y10877D01*
X15419Y10750D01*
Y10525D01*
X15292Y10475D01*
X15109Y10550D01*
X14891D01*
X14688Y10466D01*
X14534Y10312D01*
X14450Y10109D01*
Y9891D01*
X14534Y9688D01*
X14688Y9534D01*
X14891Y9450D01*
X15109D01*
X15292Y9525D01*
X15419Y9475D01*
Y8496D01*
X12004Y5081D01*
X11470D01*
X11469Y5082D01*
X11463Y5085D01*
X11454Y5090D01*
X11446Y5095D01*
X11411Y5124D01*
X11392Y5143D01*
X11372Y5155D01*
X11312Y5216D01*
X11109Y5300D01*
X10891D01*
X10688Y5216D01*
X10534Y5062D01*
X10450Y4859D01*
Y4641D01*
X10451Y4639D01*
X10361Y4549D01*
X10359Y4550D01*
X10141D01*
X9975Y4481D01*
X9903Y4589D01*
X9984Y4671D01*
X10056Y4778D01*
X10081Y4905D01*
Y5363D01*
X13734Y9016D01*
X13806Y9123D01*
X13831Y9250D01*
Y11703D01*
X13879Y11722D01*
X13958Y11745D01*
X14132Y11644D01*
X14338Y11589D01*
X14551D01*
X14757Y11644D01*
X14942Y11751D01*
X15044Y11853D01*
X15187Y11711D01*
X15383Y11598D01*
X15565Y11549D01*
Y12399D01*
Y13249D01*
X15383Y13200D01*
X15187Y13087D01*
X15044Y12945D01*
X14942Y13047D01*
X14757Y13154D01*
X14551Y13209D01*
X14338D01*
X14132Y13154D01*
X13958Y13054D01*
X13879Y13076D01*
X13831Y13095D01*
Y14863D01*
X14833Y15864D01*
X14976Y15828D01*
D02*
G37*
G36*
X1331Y13439D02*
X1230Y13325D01*
X1189Y13272D01*
X1154Y13222D01*
X1125Y13174D01*
X1103Y13129D01*
X1087Y13086D01*
X1078Y13046D01*
X1074Y13009D01*
X924D01*
X921Y13046D01*
X912Y13086D01*
X896Y13129D01*
X874Y13174D01*
X845Y13222D01*
X810Y13272D01*
X769Y13325D01*
X668Y13439D01*
X607Y13500D01*
X1391D01*
X1331Y13439D01*
D02*
G37*
G36*
X10579Y13279D02*
X10600Y13265D01*
X10621Y13254D01*
X10642Y13247D01*
X10664Y13243D01*
X10686Y13244D01*
X10709Y13248D01*
X10731Y13256D01*
X10754Y13268D01*
X10778Y13284D01*
X10699Y12890D01*
X10682Y12917D01*
X10625Y12999D01*
X10604Y13026D01*
X10507Y13136D01*
X10480Y13164D01*
X10558Y13298D01*
X10579Y13279D01*
D02*
G37*
G36*
X18245Y13587D02*
X18352Y13403D01*
X18503Y13252D01*
X18687Y13145D01*
X18893Y13090D01*
X19107D01*
X19313Y13145D01*
X19497Y13252D01*
X19618Y13373D01*
X19745Y13330D01*
X19745Y1270D01*
Y1170D01*
X19706Y974D01*
X19630Y789D01*
X19518Y623D01*
X19377Y482D01*
X19211Y370D01*
X19026Y294D01*
X18830Y255D01*
X1170D01*
X974Y294D01*
X789Y370D01*
X623Y482D01*
X482Y623D01*
X370Y789D01*
X294Y974D01*
X255Y1170D01*
Y1270D01*
X255Y13329D01*
X382Y13372D01*
X413Y13341D01*
X426Y13321D01*
X482Y13265D01*
X573Y13162D01*
X605Y13122D01*
X631Y13084D01*
X649Y13052D01*
X661Y13028D01*
X667Y13012D01*
X668Y13009D01*
Y3001D01*
X693Y2874D01*
X765Y2766D01*
X933Y2598D01*
X934Y2597D01*
X936Y2591D01*
X939Y2581D01*
X940Y2571D01*
X945Y2526D01*
X945Y2499D01*
X950Y2477D01*
Y2391D01*
X1034Y2188D01*
X1188Y2034D01*
X1391Y1950D01*
X1609D01*
X1812Y2034D01*
X1966Y2188D01*
X2050Y2391D01*
Y2609D01*
X1966Y2812D01*
X1812Y2966D01*
X1609Y3050D01*
X1523D01*
X1501Y3055D01*
X1470Y3055D01*
X1450Y3057D01*
X1433Y3059D01*
X1419Y3061D01*
X1409Y3064D01*
X1403Y3066D01*
X1402Y3067D01*
X1331Y3138D01*
Y13009D01*
X1331Y13012D01*
X1337Y13028D01*
X1349Y13052D01*
X1368Y13084D01*
X1394Y13122D01*
X1426Y13162D01*
X1517Y13265D01*
X1573Y13321D01*
X1575Y13324D01*
X1579Y13327D01*
X1635Y13382D01*
X1737Y13474D01*
X1778Y13505D01*
X1815Y13531D01*
X1847Y13550D01*
X1871Y13562D01*
X1887Y13568D01*
X1890Y13569D01*
X7713D01*
X8439Y12842D01*
X8376Y12725D01*
X8351Y12730D01*
X6445D01*
X6443Y12731D01*
X6427Y12737D01*
X6402Y12749D01*
X6371Y12768D01*
X6333Y12794D01*
X6292Y12825D01*
X6190Y12917D01*
X6134Y12972D01*
X6114Y12986D01*
X6052Y13047D01*
X5867Y13154D01*
X5661Y13209D01*
X5448D01*
X5242Y13154D01*
X5057Y13047D01*
X4920Y12910D01*
X4782Y13047D01*
X4597Y13154D01*
X4391Y13209D01*
X4178D01*
X3972Y13154D01*
X3787Y13047D01*
X3637Y12896D01*
X3530Y12712D01*
X3475Y12506D01*
Y12292D01*
X3530Y12086D01*
X3637Y11902D01*
X3787Y11751D01*
X3972Y11644D01*
X4178Y11589D01*
X4391D01*
X4597Y11644D01*
X4782Y11751D01*
X4920Y11889D01*
X5057Y11751D01*
X5242Y11644D01*
X5448Y11589D01*
X5661D01*
X5867Y11644D01*
X6052Y11751D01*
X6114Y11812D01*
X6134Y11826D01*
X6190Y11881D01*
X6292Y11973D01*
X6333Y12004D01*
X6371Y12030D01*
X6402Y12049D01*
X6427Y12061D01*
X6443Y12067D01*
X6445Y12068D01*
X8214D01*
X8329Y11952D01*
X8277Y11825D01*
X8141D01*
X7938Y11741D01*
X7784Y11587D01*
X7700Y11384D01*
Y11166D01*
X7784Y10963D01*
X7907Y10841D01*
X7927Y10762D01*
X7907Y10684D01*
X7784Y10562D01*
X7700Y10359D01*
Y10141D01*
X7784Y9938D01*
X7938Y9784D01*
X8141Y9700D01*
X8359D01*
X8562Y9784D01*
X8716Y9938D01*
X8800Y10141D01*
Y10359D01*
X8716Y10562D01*
X8593Y10684D01*
X8573Y10762D01*
X8593Y10841D01*
X8716Y10963D01*
X8800Y11166D01*
Y11302D01*
X8927Y11354D01*
X10016Y10266D01*
X10123Y10194D01*
X10250Y10169D01*
X11530D01*
X11531Y10168D01*
X11537Y10165D01*
X11546Y10160D01*
X11554Y10155D01*
X11589Y10126D01*
X11608Y10107D01*
X11628Y10095D01*
X11688Y10034D01*
X11891Y9950D01*
X12109D01*
X12312Y10034D01*
X12466Y10188D01*
X12550Y10391D01*
X12669Y10370D01*
Y9887D01*
X8766Y5984D01*
X8694Y5877D01*
X8669Y5750D01*
Y5470D01*
X8668Y5469D01*
X8665Y5463D01*
X8660Y5454D01*
X8655Y5446D01*
X8626Y5411D01*
X8607Y5392D01*
X8595Y5372D01*
X8534Y5312D01*
X8493Y5214D01*
X8344Y5184D01*
X8312Y5216D01*
X8109Y5300D01*
X7891D01*
X7688Y5216D01*
X7534Y5062D01*
X7450Y4859D01*
Y4641D01*
X7534Y4438D01*
X7688Y4284D01*
X7891Y4200D01*
X7977D01*
X7999Y4195D01*
X8030Y4195D01*
X8050Y4193D01*
X8067Y4191D01*
X8081Y4189D01*
X8091Y4186D01*
X8097Y4184D01*
X8098Y4183D01*
X8266Y4016D01*
X8373Y3944D01*
X8500Y3919D01*
X9095D01*
X9222Y3944D01*
X9329Y4016D01*
X9661Y4347D01*
X9769Y4275D01*
X9700Y4109D01*
Y3891D01*
X9784Y3688D01*
X9938Y3534D01*
X10141Y3450D01*
X10359D01*
X10562Y3534D01*
X10622Y3595D01*
X10642Y3607D01*
X10664Y3628D01*
X10679Y3642D01*
X10693Y3653D01*
X10704Y3660D01*
X10713Y3665D01*
X10719Y3668D01*
X10720Y3669D01*
X12250D01*
X12377Y3694D01*
X12484Y3766D01*
X17484Y8766D01*
X17556Y8873D01*
X17581Y9000D01*
Y9120D01*
X17700Y9141D01*
X17784Y8938D01*
X17938Y8784D01*
X18141Y8700D01*
X18359D01*
X18562Y8784D01*
X18716Y8938D01*
X18800Y9141D01*
Y9359D01*
X18716Y9562D01*
X18562Y9716D01*
X18359Y9800D01*
X18141D01*
X17938Y9716D01*
X17784Y9562D01*
X17700Y9359D01*
X17581Y9380D01*
Y9613D01*
X17984Y10016D01*
X18056Y10123D01*
X18081Y10250D01*
Y13708D01*
X18208Y13725D01*
X18245Y13587D01*
D02*
G37*
G36*
X6015Y12731D02*
X6129Y12629D01*
X6182Y12588D01*
X6233Y12553D01*
X6281Y12525D01*
X6326Y12503D01*
X6368Y12487D01*
X6408Y12477D01*
X6446Y12474D01*
Y12324D01*
X6408Y12321D01*
X6368Y12311D01*
X6326Y12296D01*
X6281Y12273D01*
X6233Y12245D01*
X6182Y12210D01*
X6129Y12169D01*
X6015Y12067D01*
X5955Y12007D01*
Y12791D01*
X6015Y12731D01*
D02*
G37*
G36*
X10711Y11921D02*
X10707Y11930D01*
X10702Y11938D01*
X10695Y11945D01*
X10687Y11951D01*
X10677Y11956D01*
X10665Y11961D01*
X10651Y11964D01*
X10636Y11966D01*
X10619Y11968D01*
X10601Y11968D01*
Y12118D01*
X10624Y12119D01*
X10664Y12122D01*
X10681Y12124D01*
X10697Y12128D01*
X10710Y12132D01*
X10722Y12138D01*
X10731Y12144D01*
X10739Y12150D01*
X10745Y12158D01*
X10711Y11921D01*
D02*
G37*
G36*
X12036Y11290D02*
X12009Y11316D01*
X11957Y11359D01*
X11931Y11376D01*
X11906Y11391D01*
X11880Y11403D01*
X11855Y11413D01*
X11829Y11420D01*
X11804Y11424D01*
X11780Y11425D01*
Y11575D01*
X11804Y11576D01*
X11829Y11580D01*
X11855Y11587D01*
X11880Y11597D01*
X11906Y11609D01*
X11931Y11624D01*
X11957Y11641D01*
X11983Y11661D01*
X12009Y11684D01*
X12036Y11710D01*
Y11290D01*
D02*
G37*
G36*
X11786Y10290D02*
X11759Y10316D01*
X11707Y10359D01*
X11681Y10376D01*
X11656Y10391D01*
X11630Y10403D01*
X11605Y10413D01*
X11579Y10420D01*
X11554Y10424D01*
X11530Y10425D01*
Y10575D01*
X11554Y10576D01*
X11579Y10580D01*
X11605Y10587D01*
X11630Y10597D01*
X11656Y10609D01*
X11681Y10624D01*
X11707Y10641D01*
X11733Y10661D01*
X11759Y10684D01*
X11786Y10710D01*
Y10290D01*
D02*
G37*
G36*
X17419Y21284D02*
Y10387D01*
X17016Y9984D01*
X16944Y9877D01*
X16919Y9750D01*
Y9137D01*
X16208Y8427D01*
X16081Y8480D01*
Y10613D01*
X16984Y11516D01*
X17056Y11623D01*
X17081Y11750D01*
Y13500D01*
X17056Y13627D01*
X16984Y13734D01*
X16581Y14137D01*
Y20613D01*
X17301Y21333D01*
X17419Y21284D01*
D02*
G37*
G36*
X9076Y5446D02*
X9080Y5421D01*
X9087Y5395D01*
X9097Y5370D01*
X9109Y5344D01*
X9124Y5319D01*
X9141Y5293D01*
X9161Y5267D01*
X9184Y5241D01*
X9210Y5214D01*
X8790D01*
X8816Y5241D01*
X8859Y5293D01*
X8876Y5319D01*
X8891Y5344D01*
X8903Y5370D01*
X8913Y5395D01*
X8920Y5421D01*
X8924Y5446D01*
X8925Y5470D01*
X9075D01*
X9076Y5446D01*
D02*
G37*
G36*
X11241Y4934D02*
X11293Y4891D01*
X11319Y4874D01*
X11344Y4859D01*
X11370Y4847D01*
X11395Y4837D01*
X11421Y4830D01*
X11446Y4826D01*
X11470Y4825D01*
Y4675D01*
X11446Y4674D01*
X11421Y4670D01*
X11395Y4663D01*
X11370Y4653D01*
X11344Y4641D01*
X11319Y4626D01*
X11293Y4609D01*
X11267Y4589D01*
X11241Y4566D01*
X11214Y4540D01*
Y4960D01*
X11241Y4934D01*
D02*
G37*
G36*
X8300Y4710D02*
X8307Y4643D01*
X8313Y4612D01*
X8320Y4583D01*
X8330Y4557D01*
X8341Y4532D01*
X8354Y4509D01*
X8369Y4489D01*
X8386Y4470D01*
X8280Y4364D01*
X8261Y4381D01*
X8241Y4396D01*
X8218Y4409D01*
X8193Y4420D01*
X8167Y4430D01*
X8138Y4437D01*
X8107Y4443D01*
X8075Y4447D01*
X8040Y4450D01*
X8003Y4450D01*
X8300Y4747D01*
X8300Y4710D01*
D02*
G37*
G36*
X10491Y4184D02*
X10543Y4141D01*
X10569Y4124D01*
X10594Y4109D01*
X10620Y4097D01*
X10645Y4087D01*
X10671Y4080D01*
X10696Y4076D01*
X10720Y4075D01*
Y3925D01*
X10696Y3924D01*
X10671Y3920D01*
X10645Y3913D01*
X10620Y3903D01*
X10594Y3891D01*
X10569Y3876D01*
X10543Y3859D01*
X10517Y3839D01*
X10491Y3816D01*
X10464Y3790D01*
Y4210D01*
X10491Y4184D01*
D02*
G37*
G36*
X1239Y2869D02*
X1259Y2854D01*
X1282Y2841D01*
X1307Y2830D01*
X1333Y2820D01*
X1362Y2813D01*
X1393Y2807D01*
X1425Y2803D01*
X1460Y2800D01*
X1497Y2800D01*
X1200Y2503D01*
X1199Y2540D01*
X1193Y2607D01*
X1187Y2638D01*
X1180Y2667D01*
X1170Y2693D01*
X1159Y2718D01*
X1146Y2741D01*
X1131Y2761D01*
X1114Y2780D01*
X1220Y2886D01*
X1239Y2869D01*
D02*
G37*
%LPC*%
G36*
X1149Y31260D02*
Y30560D01*
X1850D01*
X1801Y30742D01*
X1688Y30938D01*
X1527Y31098D01*
X1331Y31211D01*
X1149Y31260D01*
D02*
G37*
G36*
X18850Y31260D02*
X18668Y31211D01*
X18472Y31098D01*
X18312Y30938D01*
X18199Y30742D01*
X18150Y30560D01*
X18850D01*
Y31260D01*
D02*
G37*
G36*
X13862Y31600D02*
X13638D01*
X13422Y31542D01*
X13228Y31430D01*
X13070Y31272D01*
X12958Y31078D01*
X12900Y30862D01*
Y30638D01*
X12958Y30422D01*
X13070Y30228D01*
X13228Y30070D01*
X13422Y29958D01*
X13638Y29900D01*
X13862D01*
X14078Y29958D01*
X14272Y30070D01*
X14430Y30228D01*
X14542Y30422D01*
X14600Y30638D01*
Y30862D01*
X14542Y31078D01*
X14430Y31272D01*
X14272Y31430D01*
X14078Y31542D01*
X13862Y31600D01*
D02*
G37*
G36*
X11859Y31550D02*
X11641D01*
X11438Y31466D01*
X11284Y31312D01*
X11200Y31109D01*
Y30891D01*
X11284Y30688D01*
X11347Y30625D01*
X11284Y30562D01*
X11200Y30359D01*
Y30141D01*
X11284Y29938D01*
X11438Y29784D01*
X11641Y29700D01*
X11859D01*
X12062Y29784D01*
X12216Y29938D01*
X12300Y30141D01*
Y30359D01*
X12216Y30562D01*
X12153Y30625D01*
X12216Y30688D01*
X12300Y30891D01*
Y31109D01*
X12216Y31312D01*
X12062Y31466D01*
X11859Y31550D01*
D02*
G37*
G36*
X16202Y30300D02*
X16150D01*
Y28400D01*
X18050D01*
Y28452D01*
X17971Y28848D01*
X17817Y29221D01*
X17592Y29557D01*
X17307Y29842D01*
X16971Y30067D01*
X16598Y30221D01*
X16202Y30300D01*
D02*
G37*
G36*
X15850D02*
X15798D01*
X15402Y30221D01*
X15029Y30067D01*
X14693Y29842D01*
X14408Y29557D01*
X14183Y29221D01*
X14029Y28848D01*
X13950Y28452D01*
Y28400D01*
X15850D01*
Y30300D01*
D02*
G37*
G36*
X5400Y27892D02*
Y27150D01*
X6142D01*
X6089Y27347D01*
X5970Y27553D01*
X5803Y27720D01*
X5597Y27839D01*
X5400Y27892D01*
D02*
G37*
G36*
X15850Y28100D02*
X13950D01*
Y28048D01*
X14029Y27652D01*
X14183Y27279D01*
X14408Y26943D01*
X14693Y26658D01*
X15029Y26433D01*
X15402Y26279D01*
X15798Y26200D01*
X15850D01*
Y28100D01*
D02*
G37*
G36*
X5100Y26850D02*
X4358D01*
X4411Y26653D01*
X4530Y26447D01*
X4697Y26280D01*
X4903Y26161D01*
X5100Y26108D01*
Y26850D01*
D02*
G37*
G36*
X6142D02*
X5400D01*
Y26108D01*
X5597Y26161D01*
X5803Y26280D01*
X5970Y26447D01*
X6089Y26653D01*
X6142Y26850D01*
D02*
G37*
G36*
X12859Y26300D02*
X12641D01*
X12438Y26216D01*
X12284Y26062D01*
X12200Y25859D01*
Y25641D01*
X12284Y25438D01*
X12438Y25284D01*
X12641Y25200D01*
X12859D01*
X13062Y25284D01*
X13216Y25438D01*
X13300Y25641D01*
Y25859D01*
X13216Y26062D01*
X13062Y26216D01*
X12859Y26300D01*
D02*
G37*
G36*
X8722Y25800D02*
X8503D01*
X8301Y25716D01*
X8146Y25562D01*
X8062Y25359D01*
Y25141D01*
X8146Y24938D01*
X8301Y24784D01*
X8503Y24700D01*
X8722D01*
X8924Y24784D01*
X9078Y24938D01*
X9162Y25141D01*
Y25359D01*
X9078Y25562D01*
X8924Y25716D01*
X8722Y25800D01*
D02*
G37*
G36*
X11859Y25550D02*
X11641D01*
X11438Y25466D01*
X11284Y25312D01*
X11200Y25109D01*
Y24891D01*
X11284Y24688D01*
X11438Y24534D01*
X11641Y24450D01*
X11859D01*
X12062Y24534D01*
X12216Y24688D01*
X12300Y24891D01*
Y25109D01*
X12216Y25312D01*
X12062Y25466D01*
X11859Y25550D01*
D02*
G37*
G36*
X3609Y23800D02*
X3391D01*
X3188Y23716D01*
X3034Y23562D01*
X2950Y23359D01*
Y23141D01*
X3034Y22938D01*
X3188Y22784D01*
X3391Y22700D01*
X3609D01*
X3812Y22784D01*
X3966Y22938D01*
X4050Y23141D01*
Y23359D01*
X3966Y23562D01*
X3812Y23716D01*
X3609Y23800D01*
D02*
G37*
G36*
X4859Y21050D02*
X4641D01*
X4438Y20966D01*
X4284Y20812D01*
X4200Y20609D01*
Y20391D01*
X4284Y20188D01*
X4438Y20034D01*
X4641Y19950D01*
X4859D01*
X5062Y20034D01*
X5216Y20188D01*
X5300Y20391D01*
Y20609D01*
X5216Y20812D01*
X5062Y20966D01*
X4859Y21050D01*
D02*
G37*
G36*
X4202Y10300D02*
X4150D01*
Y8400D01*
X6050D01*
Y8452D01*
X5971Y8848D01*
X5817Y9221D01*
X5592Y9557D01*
X5307Y9842D01*
X4971Y10067D01*
X4598Y10221D01*
X4202Y10300D01*
D02*
G37*
G36*
X3850D02*
X3798D01*
X3402Y10221D01*
X3029Y10067D01*
X2693Y9842D01*
X2408Y9557D01*
X2183Y9221D01*
X2029Y8848D01*
X1950Y8452D01*
Y8400D01*
X3850D01*
Y10300D01*
D02*
G37*
G36*
X6050Y8100D02*
X4150D01*
Y6200D01*
X4202D01*
X4598Y6279D01*
X4971Y6433D01*
X5307Y6658D01*
X5592Y6943D01*
X5817Y7279D01*
X5971Y7652D01*
X6050Y8048D01*
Y8100D01*
D02*
G37*
G36*
X3850D02*
X1950D01*
Y8048D01*
X2029Y7652D01*
X2183Y7279D01*
X2408Y6943D01*
X2693Y6658D01*
X3029Y6433D01*
X3402Y6279D01*
X3798Y6200D01*
X3850D01*
Y8100D01*
D02*
G37*
G36*
X17859Y5800D02*
X17641D01*
X17438Y5716D01*
X17284Y5562D01*
X17200Y5359D01*
Y5141D01*
X17284Y4938D01*
X17438Y4784D01*
X17641Y4700D01*
X17859D01*
X18062Y4784D01*
X18216Y4938D01*
X18300Y5141D01*
Y5359D01*
X18216Y5562D01*
X18062Y5716D01*
X17859Y5800D01*
D02*
G37*
G36*
X6359Y3800D02*
X6141D01*
X5938Y3716D01*
X5784Y3562D01*
X5700Y3359D01*
Y3141D01*
X5784Y2938D01*
X5938Y2784D01*
X6141Y2700D01*
X6359D01*
X6562Y2784D01*
X6716Y2938D01*
X6800Y3141D01*
Y3359D01*
X6716Y3562D01*
X6562Y3716D01*
X6359Y3800D01*
D02*
G37*
G36*
X8980Y2573D02*
Y1650D01*
X9903D01*
X9832Y1915D01*
X9690Y2160D01*
X9490Y2360D01*
X9245Y2502D01*
X8980Y2573D01*
D02*
G37*
G36*
X8680D02*
X8415Y2502D01*
X8170Y2360D01*
X7970Y2160D01*
X7828Y1915D01*
X7757Y1650D01*
X8680D01*
Y2573D01*
D02*
G37*
G36*
X16585Y2525D02*
X16315D01*
X16054Y2455D01*
X15821Y2320D01*
X15630Y2129D01*
X15495Y1896D01*
X15425Y1635D01*
Y1365D01*
X15495Y1104D01*
X15630Y871D01*
X15821Y680D01*
X16054Y545D01*
X16315Y475D01*
X16585D01*
X16846Y545D01*
X17079Y680D01*
X17270Y871D01*
X17405Y1104D01*
X17475Y1365D01*
Y1635D01*
X17405Y1896D01*
X17270Y2129D01*
X17079Y2320D01*
X16846Y2455D01*
X16585Y2525D01*
D02*
G37*
G36*
X14045D02*
X13775D01*
X13514Y2455D01*
X13281Y2320D01*
X13090Y2129D01*
X12955Y1896D01*
X12885Y1635D01*
Y1365D01*
X12955Y1104D01*
X13090Y871D01*
X13281Y680D01*
X13514Y545D01*
X13775Y475D01*
X14045D01*
X14306Y545D01*
X14539Y680D01*
X14730Y871D01*
X14865Y1104D01*
X14935Y1365D01*
Y1635D01*
X14865Y1896D01*
X14730Y2129D01*
X14539Y2320D01*
X14306Y2455D01*
X14045Y2525D01*
D02*
G37*
G36*
X11505D02*
X11235D01*
X10974Y2455D01*
X10741Y2320D01*
X10550Y2129D01*
X10415Y1896D01*
X10345Y1635D01*
Y1365D01*
X10415Y1104D01*
X10550Y871D01*
X10741Y680D01*
X10974Y545D01*
X11235Y475D01*
X11505D01*
X11766Y545D01*
X11999Y680D01*
X12190Y871D01*
X12325Y1104D01*
X12395Y1365D01*
Y1635D01*
X12325Y1896D01*
X12190Y2129D01*
X11999Y2320D01*
X11766Y2455D01*
X11505Y2525D01*
D02*
G37*
G36*
X6425D02*
X6155D01*
X5894Y2455D01*
X5661Y2320D01*
X5470Y2129D01*
X5335Y1896D01*
X5265Y1635D01*
Y1365D01*
X5335Y1104D01*
X5470Y871D01*
X5661Y680D01*
X5894Y545D01*
X6155Y475D01*
X6425D01*
X6686Y545D01*
X6919Y680D01*
X7110Y871D01*
X7245Y1104D01*
X7315Y1365D01*
Y1635D01*
X7245Y1896D01*
X7110Y2129D01*
X6919Y2320D01*
X6686Y2455D01*
X6425Y2525D01*
D02*
G37*
G36*
X4775D02*
X2725D01*
Y475D01*
X4775D01*
Y2525D01*
D02*
G37*
G36*
X9903Y1350D02*
X8980D01*
Y427D01*
X9245Y498D01*
X9490Y640D01*
X9690Y840D01*
X9832Y1085D01*
X9903Y1350D01*
D02*
G37*
G36*
X8680D02*
X7757D01*
X7828Y1085D01*
X7970Y840D01*
X8170Y640D01*
X8415Y498D01*
X8680Y427D01*
Y1350D01*
D02*
G37*
%LPD*%
D12*
X9750Y22250D02*
X12975Y19025D01*
X7750Y22250D02*
X9750D01*
X12975Y18525D02*
Y19025D01*
Y18525D02*
X13000Y18500D01*
X5555Y12399D02*
X8351D01*
X10250Y10500D02*
X12000D01*
X8351Y12399D02*
X10250Y10500D01*
X1940Y24060D02*
X2250Y23750D01*
X999Y24060D02*
X1940D01*
X2250Y21921D02*
Y23750D01*
Y21921D02*
X2550Y21621D01*
X10664Y13086D02*
X10914D01*
X2550Y21200D02*
X10664Y13086D01*
X2550Y21200D02*
Y21621D01*
X10914Y13086D02*
X10957Y13043D01*
X17750Y23750D02*
X18060Y24060D01*
X19000D01*
X17750Y22250D02*
Y23750D01*
X16250Y20750D02*
X17750Y22250D01*
X16250Y14000D02*
Y20750D01*
Y14000D02*
X16750Y13500D01*
Y11750D02*
Y13500D01*
X15750Y10750D02*
X16750Y11750D01*
X12141Y4750D02*
X15750Y8359D01*
Y10750D01*
X11000Y4750D02*
X12141D01*
X18080Y25330D02*
X19000D01*
X17000Y24250D02*
X18080Y25330D01*
X17000Y22500D02*
Y24250D01*
X15250Y20750D02*
X17000Y22500D01*
X15250Y16750D02*
Y20750D01*
X13500Y15000D02*
X15250Y16750D01*
X13500Y9250D02*
Y15000D01*
X9750Y5500D02*
X13500Y9250D01*
X8000Y4750D02*
X8500Y4250D01*
X9095D01*
X9750Y4905D02*
Y5500D01*
X9095Y4250D02*
X9750Y4905D01*
X10250Y11500D02*
X12250D01*
X999Y13900D02*
X7850D01*
X10250Y11500D01*
X999Y3001D02*
X1500Y2500D01*
X999Y3001D02*
Y13900D01*
X2750Y17000D02*
X3250Y16500D01*
X1932Y18980D02*
X2250Y18662D01*
X999Y18980D02*
X1932D01*
X2250Y18662D02*
Y18662D01*
Y18662D02*
X2750Y18162D01*
Y17000D02*
Y18162D01*
X10953Y12043D02*
X10996Y12000D01*
X3250Y16500D02*
X6144D01*
X10601Y12043D01*
X10953D01*
X3250Y25000D02*
X6000Y22250D01*
X3250Y25000D02*
Y27250D01*
X2630Y27870D02*
X3250Y27250D01*
X999Y27870D02*
X2630D01*
X6000Y18750D02*
Y22250D01*
X11000Y13750D02*
X11750D01*
X6000Y18750D02*
X11000Y13750D01*
X16630Y25500D02*
X19000Y27870D01*
X15750Y25500D02*
X16630D01*
X14000Y23750D02*
X15750Y25500D01*
X12500Y23750D02*
X14000D01*
X6750Y20750D02*
X8750Y18750D01*
X6750Y20750D02*
Y22385D01*
X7542Y23177D02*
X8948D01*
X6750Y22385D02*
X7542Y23177D01*
X9201Y22924D02*
X11674D01*
X8948Y23177D02*
X9201Y22924D01*
X11674D02*
X12500Y23750D01*
X17750Y10250D02*
Y21540D01*
X19000Y22790D01*
X17250Y9750D02*
X17750Y10250D01*
X12250Y4000D02*
X17250Y9000D01*
Y9750D01*
X10250Y4000D02*
X12250D01*
X9000Y5750D02*
X13000Y9750D01*
Y15250D01*
X14250Y16500D01*
X9000Y5000D02*
Y5750D01*
X14250Y16500D02*
Y22452D01*
X18303Y26505D02*
X18905D01*
X19000Y26600D01*
X14250Y22452D02*
X18303Y26505D01*
D15*
X20000Y31730D02*
G03*
X18730Y33000I-1270J0D01*
G01*
X1270D02*
G03*
X0Y31730I0J-1270D01*
G01*
X18730Y0D02*
G03*
X20000Y1270I0J1270D01*
G01*
X0D02*
G03*
X1270Y0I1270J0D01*
G01*
X1270Y33000D02*
X18730D01*
X-0Y1270D02*
X0Y31730D01*
X20000Y1270D02*
X20000Y31730D01*
X1270Y0D02*
X18730D01*
D31*
X19000Y30410D02*
D03*
X15715Y12399D02*
D03*
X999Y30410D02*
D03*
X5555Y12399D02*
D03*
X999Y13900D02*
D03*
Y18980D02*
D03*
Y24060D02*
D03*
Y27870D02*
D03*
X19000Y22790D02*
D03*
Y24060D02*
D03*
Y25330D02*
D03*
Y26600D02*
D03*
Y27870D02*
D03*
D38*
X16000Y28250D02*
D03*
X4000Y8250D02*
D03*
D39*
X5250Y27000D02*
D03*
D40*
X8830Y1500D02*
D03*
D42*
X7750Y22250D02*
D03*
X13000Y18500D02*
D03*
X17000Y18250D02*
D03*
X19250Y11500D02*
D03*
X18250Y12750D02*
D03*
X16500Y10250D02*
D03*
X10984Y31501D02*
D03*
X13250Y26750D02*
D03*
X14750Y25500D02*
D03*
X13750Y24500D02*
D03*
X15391Y22679D02*
D03*
X12600Y21054D02*
D03*
X10180Y24366D02*
D03*
X19250Y10000D02*
D03*
X19000Y6000D02*
D03*
Y4500D02*
D03*
X17500Y3750D02*
D03*
X19000Y1000D02*
D03*
Y2500D02*
D03*
X15250Y3750D02*
D03*
X14500Y8250D02*
D03*
X11750Y6500D02*
D03*
X12000Y3250D02*
D03*
X11750Y5500D02*
D03*
X8250Y31000D02*
D03*
X8000Y30250D02*
D03*
X6500Y31000D02*
D03*
X4750D02*
D03*
X6500Y26500D02*
D03*
X2750Y31000D02*
D03*
Y29750D02*
D03*
X2500Y27000D02*
D03*
X7000Y24250D02*
D03*
X8000Y2750D02*
D03*
X7200Y19300D02*
D03*
X5750Y17000D02*
D03*
X4750Y18000D02*
D03*
X3050Y21700D02*
D03*
X2000Y21000D02*
D03*
X6750Y14500D02*
D03*
X3250Y15000D02*
D03*
X3000Y13000D02*
D03*
X2750Y11250D02*
D03*
X1000Y1250D02*
D03*
X12000Y10500D02*
D03*
X10957Y13043D02*
D03*
X11000Y4750D02*
D03*
X8000D02*
D03*
X12250Y11500D02*
D03*
X1500Y2500D02*
D03*
X11000Y12000D02*
D03*
X11750Y13750D02*
D03*
X8750Y18750D02*
D03*
X10250Y4000D02*
D03*
X9000Y5000D02*
D03*
M02*
