G04*
G04 #@! TF.GenerationSoftware,Altium Limited,Altium Designer,25.5.2 (35)*
G04*
G04 Layer_Color=8388736*
%FSLAX43Y43*%
%MOMM*%
G71*
G04*
G04 #@! TF.SameCoordinates,58B6322B-C259-4354-A196-82249ED135E1*
G04*
G04*
G04 #@! TF.FilePolarity,Negative*
G04*
G01*
G75*
%ADD15C,0.500*%
%ADD16R,1.210X0.476*%
G04:AMPARAMS|DCode=17|XSize=1.21mm|YSize=0.476mm|CornerRadius=0.238mm|HoleSize=0mm|Usage=FLASHONLY|Rotation=0.000|XOffset=0mm|YOffset=0mm|HoleType=Round|Shape=RoundedRectangle|*
%AMROUNDEDRECTD17*
21,1,1.210,0.000,0,0,0.0*
21,1,0.734,0.476,0,0,0.0*
1,1,0.476,0.367,0.000*
1,1,0.476,-0.367,0.000*
1,1,0.476,-0.367,0.000*
1,1,0.476,0.367,0.000*
%
%ADD17ROUNDEDRECTD17*%
%ADD18R,0.476X1.210*%
G04:AMPARAMS|DCode=19|XSize=1.21mm|YSize=0.476mm|CornerRadius=0.238mm|HoleSize=0mm|Usage=FLASHONLY|Rotation=90.000|XOffset=0mm|YOffset=0mm|HoleType=Round|Shape=RoundedRectangle|*
%AMROUNDEDRECTD19*
21,1,1.210,0.000,0,0,90.0*
21,1,0.734,0.476,0,0,90.0*
1,1,0.476,0.000,0.367*
1,1,0.476,0.000,-0.367*
1,1,0.476,0.000,-0.367*
1,1,0.476,0.000,0.367*
%
%ADD19ROUNDEDRECTD19*%
%ADD26R,0.740X0.740*%
%ADD27R,0.740X0.740*%
%ADD28R,1.590X1.390*%
%ADD29R,0.400X1.700*%
%ADD30O,1.800X0.400*%
%ADD31R,1.340X1.090*%
%ADD32R,0.890X1.890*%
%ADD33R,1.120X1.120*%
%ADD34C,1.120*%
%ADD35R,1.120X1.120*%
%ADD36C,1.640*%
%ADD37R,1.640X1.640*%
%ADD38C,1.290*%
%ADD39C,3.590*%
D15*
X20000Y31730D02*
G03*
X18730Y33000I-1270J0D01*
G01*
X1270D02*
G03*
X0Y31730I0J-1270D01*
G01*
X18730Y0D02*
G03*
X20000Y1270I0J1270D01*
G01*
X0D02*
G03*
X1270Y0I1270J0D01*
G01*
X1270Y33000D02*
X18730D01*
X-0Y1270D02*
X0Y31730D01*
X20000Y1270D02*
X20000Y31730D01*
X1270Y0D02*
X18730D01*
D16*
X12649Y17400D02*
D03*
D17*
Y16100D02*
D03*
X14351Y16750D02*
D03*
D18*
X8350Y16149D02*
D03*
D19*
X9650D02*
D03*
X9000Y17851D02*
D03*
D26*
X17500Y22450D02*
D03*
Y21550D02*
D03*
X16250Y19200D02*
D03*
Y18300D02*
D03*
Y22300D02*
D03*
Y23200D02*
D03*
X17250Y8300D02*
D03*
Y9200D02*
D03*
X15750Y7200D02*
D03*
X5500Y15200D02*
D03*
X13250Y19350D02*
D03*
Y20250D02*
D03*
X5500Y14300D02*
D03*
X17250Y7200D02*
D03*
X11250Y16300D02*
D03*
Y17200D02*
D03*
X17250Y6300D02*
D03*
X15750Y6300D02*
D03*
D27*
X16550Y20250D02*
D03*
X17450D02*
D03*
X16200Y8250D02*
D03*
X15300D02*
D03*
X7950Y3750D02*
D03*
X7000Y25750D02*
D03*
X3850Y21700D02*
D03*
X7200Y18500D02*
D03*
X16300Y16750D02*
D03*
X16300Y15251D02*
D03*
X16300Y13750D02*
D03*
X7900Y25750D02*
D03*
X3450Y24000D02*
D03*
X3200Y28000D02*
D03*
X3450Y19000D02*
D03*
X3450Y16500D02*
D03*
X7050Y3750D02*
D03*
X6300Y18500D02*
D03*
X8950Y23500D02*
D03*
X8050D02*
D03*
X4750Y21700D02*
D03*
X11700Y18500D02*
D03*
X2550Y24000D02*
D03*
X17200Y16750D02*
D03*
X17200Y15251D02*
D03*
X17200Y13750D02*
D03*
X2550Y16500D02*
D03*
X2550Y19000D02*
D03*
X2300Y28000D02*
D03*
X10800Y18500D02*
D03*
D28*
X8250Y14200D02*
D03*
Y12300D02*
D03*
D29*
X9500Y26450D02*
D03*
X9000Y30050D02*
D03*
X11000Y6450D02*
D03*
X10500Y30050D02*
D03*
X9000Y26450D02*
D03*
Y10050D02*
D03*
X9500Y30050D02*
D03*
X11000D02*
D03*
X11000Y10050D02*
D03*
X10000D02*
D03*
X11000Y26450D02*
D03*
X10500D02*
D03*
Y6450D02*
D03*
X10000Y26450D02*
D03*
X9000Y6450D02*
D03*
X10500Y10050D02*
D03*
X9500D02*
D03*
X10000Y6450D02*
D03*
X9500D02*
D03*
X10000Y30050D02*
D03*
D30*
X10500Y21050D02*
D03*
Y20050D02*
D03*
Y20550D02*
D03*
Y21550D02*
D03*
X10500Y22050D02*
D03*
X6400Y20050D02*
D03*
Y20550D02*
D03*
Y21050D02*
D03*
Y21550D02*
D03*
Y22050D02*
D03*
D31*
X15000Y20000D02*
D03*
X15000Y21500D02*
D03*
D32*
X12700Y8250D02*
D03*
X7300D02*
D03*
X12700Y28250D02*
D03*
X7300D02*
D03*
D33*
X15715Y12399D02*
D03*
X5555D02*
D03*
D34*
X14445D02*
D03*
X4285D02*
D03*
X19000Y15170D02*
D03*
Y16440D02*
D03*
Y17710D02*
D03*
Y18980D02*
D03*
Y20250D02*
D03*
Y21520D02*
D03*
Y22790D02*
D03*
Y24060D02*
D03*
Y25330D02*
D03*
Y26600D02*
D03*
Y27870D02*
D03*
Y29140D02*
D03*
Y30410D02*
D03*
X999Y15170D02*
D03*
Y16440D02*
D03*
Y17710D02*
D03*
Y18980D02*
D03*
Y20250D02*
D03*
Y21520D02*
D03*
Y22790D02*
D03*
Y24060D02*
D03*
Y25330D02*
D03*
Y26600D02*
D03*
Y27870D02*
D03*
Y29140D02*
D03*
Y30410D02*
D03*
Y20250D02*
D03*
Y30410D02*
D03*
X15715Y12399D02*
D03*
X19000Y30410D02*
D03*
X999Y17710D02*
D03*
X4285Y12399D02*
D03*
X19000Y29140D02*
D03*
X14445Y12399D02*
D03*
X5555Y12399D02*
D03*
X999Y13900D02*
D03*
Y15170D02*
D03*
Y16440D02*
D03*
Y18980D02*
D03*
Y21520D02*
D03*
Y22790D02*
D03*
Y24060D02*
D03*
Y25330D02*
D03*
Y26600D02*
D03*
Y27870D02*
D03*
Y29140D02*
D03*
X19000Y13900D02*
D03*
Y15170D02*
D03*
Y16440D02*
D03*
Y17710D02*
D03*
Y18980D02*
D03*
Y20250D02*
D03*
Y21520D02*
D03*
Y22790D02*
D03*
Y24060D02*
D03*
Y25330D02*
D03*
Y26600D02*
D03*
Y27870D02*
D03*
D35*
Y13900D02*
D03*
X999D02*
D03*
D36*
X8830Y1500D02*
D03*
X11370D02*
D03*
X6290D02*
D03*
X13910D02*
D03*
X16450D02*
D03*
D37*
X3750D02*
D03*
D38*
X5250Y24500D02*
D03*
Y27000D02*
D03*
X13750Y30750D02*
D03*
D39*
X4000Y8250D02*
D03*
X16000Y28250D02*
D03*
M02*
