G04*
G04 #@! TF.GenerationSoftware,Altium Limited,Altium Designer,25.5.2 (35)*
G04*
G04 Layer_Color=8421504*
%FSLAX43Y43*%
%MOMM*%
G71*
G04*
G04 #@! TF.SameCoordinates,128D87EA-3B7D-471D-9151-A49BA8F44CF5*
G04*
G04*
G04 #@! TF.FilePolarity,Positive*
G04*
G01*
G75*
%ADD15C,0.500*%
%ADD16R,0.650X0.650*%
%ADD17O,1.700X0.300*%
%ADD18R,0.650X0.650*%
%ADD19R,0.600X0.470*%
%ADD20R,1.500X1.300*%
%ADD21R,1.250X1.000*%
%ADD22R,0.470X0.600*%
%ADD23R,0.800X1.800*%
G36*
X9140Y5650D02*
X8860D01*
Y6850D01*
X9140D01*
Y5650D01*
D02*
G37*
G36*
X9640D02*
X9360D01*
Y6850D01*
X9640D01*
Y5650D01*
D02*
G37*
G36*
X10140D02*
X9860D01*
Y6850D01*
X10140D01*
Y5650D01*
D02*
G37*
G36*
X10640D02*
X10360D01*
Y6850D01*
X10640D01*
Y5650D01*
D02*
G37*
G36*
X11140D02*
X10860D01*
Y6850D01*
X11140D01*
Y5650D01*
D02*
G37*
G36*
X9140Y9650D02*
X8860D01*
Y10850D01*
X9140D01*
Y9650D01*
D02*
G37*
G36*
X9640D02*
X9360D01*
Y10850D01*
X9640D01*
Y9650D01*
D02*
G37*
G36*
X10140D02*
X9860D01*
Y10850D01*
X10140D01*
Y9650D01*
D02*
G37*
G36*
X10640D02*
X10360D01*
Y10850D01*
X10640D01*
Y9650D01*
D02*
G37*
G36*
X11140D02*
X10860D01*
Y10850D01*
X11140D01*
Y9650D01*
D02*
G37*
G36*
X8860Y26850D02*
X9140D01*
Y25650D01*
X8860Y25650D01*
Y26850D01*
D02*
G37*
G36*
X9360D02*
X9640D01*
Y25650D01*
X9360D01*
Y26850D01*
D02*
G37*
G36*
X9860D02*
X10140D01*
Y25650D01*
X9860Y25650D01*
X9860Y26850D01*
D02*
G37*
G36*
X10360D02*
X10640D01*
Y25650D01*
X10360Y25650D01*
Y26850D01*
D02*
G37*
G36*
X10860D02*
X11140D01*
Y25650D01*
X10860D01*
Y26850D01*
D02*
G37*
G36*
X9360Y30850D02*
X9640D01*
Y29650D01*
X9360D01*
Y30850D01*
D02*
G37*
G36*
X8860D02*
X9140Y30850D01*
Y29650D01*
X8860D01*
Y30850D01*
D02*
G37*
G36*
X9860Y30850D02*
X10140Y30850D01*
Y29650D01*
X9860D01*
X9860Y30850D01*
D02*
G37*
G36*
X10860Y30850D02*
X11140D01*
Y29650D01*
X10860D01*
Y30850D01*
D02*
G37*
G36*
X10360Y30850D02*
X10640Y30850D01*
Y29650D01*
X10360D01*
Y30850D01*
D02*
G37*
D15*
X20000Y31730D02*
G03*
X18730Y33000I-1270J0D01*
G01*
X1270D02*
G03*
X0Y31730I0J-1270D01*
G01*
X18730Y0D02*
G03*
X20000Y1270I0J1270D01*
G01*
X0D02*
G03*
X1270Y0I1270J0D01*
G01*
X1270Y33000D02*
X18730D01*
X-0Y1270D02*
X0Y31730D01*
X20000Y1270D02*
X20000Y31730D01*
X1270Y0D02*
X18730D01*
D16*
X13250Y19350D02*
D03*
Y20250D02*
D03*
X16250Y23200D02*
D03*
Y18300D02*
D03*
X15750Y7200D02*
D03*
X5500Y14300D02*
D03*
Y15200D02*
D03*
X17250Y9200D02*
D03*
X16250Y19200D02*
D03*
X17250Y8300D02*
D03*
Y7200D02*
D03*
X17500Y21550D02*
D03*
X11250Y16300D02*
D03*
Y17200D02*
D03*
X16250Y22300D02*
D03*
X17250Y6300D02*
D03*
X15750Y6300D02*
D03*
X17500Y22450D02*
D03*
D17*
X10500Y20050D02*
D03*
Y20550D02*
D03*
Y21050D02*
D03*
Y21550D02*
D03*
X10500Y22050D02*
D03*
X6400Y20050D02*
D03*
Y20550D02*
D03*
Y21050D02*
D03*
Y21550D02*
D03*
Y22050D02*
D03*
D18*
X6300Y18500D02*
D03*
X7200D02*
D03*
X8950Y23500D02*
D03*
X8050D02*
D03*
X4750Y21700D02*
D03*
X3850D02*
D03*
X11700Y18500D02*
D03*
X15300Y8250D02*
D03*
X7000Y25750D02*
D03*
X7950Y3750D02*
D03*
X2550Y24000D02*
D03*
X17200Y16750D02*
D03*
X7050Y3750D02*
D03*
X3450Y16500D02*
D03*
X3450Y19000D02*
D03*
X3200Y28000D02*
D03*
X3450Y24000D02*
D03*
X7900Y25750D02*
D03*
X16300Y13750D02*
D03*
X16300Y15251D02*
D03*
X16300Y16750D02*
D03*
X17200Y15251D02*
D03*
X17200Y13750D02*
D03*
X2550Y16500D02*
D03*
X2550Y19000D02*
D03*
X2300Y28000D02*
D03*
X17450Y20250D02*
D03*
X16200Y8250D02*
D03*
X10800Y18500D02*
D03*
X16550Y20250D02*
D03*
D19*
X12550Y16100D02*
D03*
X14450Y16750D02*
D03*
X12550Y17400D02*
D03*
D20*
X8250Y14200D02*
D03*
Y12300D02*
D03*
D21*
X15000Y20000D02*
D03*
X15000Y21500D02*
D03*
D22*
X9000Y17950D02*
D03*
X9650Y16050D02*
D03*
X8350D02*
D03*
D23*
X12700Y8250D02*
D03*
X7300D02*
D03*
X12700Y28250D02*
D03*
X7300D02*
D03*
M02*
