G04*
G04 #@! TF.GenerationSoftware,Altium Limited,Altium Designer,25.5.2 (35)*
G04*
G04 Layer_Color=8388736*
%FSLAX43Y43*%
%MOMM*%
G71*
G04*
G04 #@! TF.SameCoordinates,128D87EA-3B7D-471D-9151-A49BA8F44CF5*
G04*
G04*
G04 #@! TF.FilePolarity,Negative*
G04*
G01*
G75*
%ADD15C,0.500*%
%ADD19R,0.600X0.470*%
%ADD22R,0.470X0.600*%
%ADD24R,0.740X0.740*%
%ADD25O,1.800X0.400*%
%ADD26R,0.740X0.740*%
%ADD27R,0.400X1.700*%
%ADD28R,1.590X1.390*%
%ADD29R,1.340X1.090*%
%ADD30R,0.890X1.890*%
%ADD31C,1.120*%
%ADD32C,3.590*%
%ADD33C,1.290*%
%ADD34C,1.640*%
%ADD35R,1.640X1.640*%
D15*
X20000Y31730D02*
G03*
X18730Y33000I-1270J0D01*
G01*
X1270D02*
G03*
X0Y31730I0J-1270D01*
G01*
X18730Y0D02*
G03*
X20000Y1270I0J1270D01*
G01*
X0D02*
G03*
X1270Y0I1270J0D01*
G01*
X1270Y33000D02*
X18730D01*
X-0Y1270D02*
X0Y31730D01*
X20000Y1270D02*
X20000Y31730D01*
X1270Y0D02*
X18730D01*
D19*
X12550Y16100D02*
D03*
X14450Y16750D02*
D03*
X12550Y17400D02*
D03*
D22*
X9000Y17950D02*
D03*
X9650Y16050D02*
D03*
X8350D02*
D03*
D24*
X13250Y19350D02*
D03*
Y20250D02*
D03*
X16250Y23200D02*
D03*
Y18300D02*
D03*
X15750Y7200D02*
D03*
X5500Y14300D02*
D03*
Y15200D02*
D03*
X17250Y9200D02*
D03*
X16250Y19200D02*
D03*
X17250Y8300D02*
D03*
Y7200D02*
D03*
X17500Y21550D02*
D03*
X11250Y16300D02*
D03*
Y17200D02*
D03*
X16250Y22300D02*
D03*
X17250Y6300D02*
D03*
X15750Y6300D02*
D03*
X17500Y22450D02*
D03*
D25*
X10500Y20050D02*
D03*
Y20550D02*
D03*
Y21050D02*
D03*
Y21550D02*
D03*
X10500Y22050D02*
D03*
X6400Y20050D02*
D03*
Y20550D02*
D03*
Y21050D02*
D03*
Y21550D02*
D03*
Y22050D02*
D03*
D26*
X6300Y18500D02*
D03*
X7200D02*
D03*
X8950Y23500D02*
D03*
X8050D02*
D03*
X4750Y21700D02*
D03*
X3850D02*
D03*
X11700Y18500D02*
D03*
X15300Y8250D02*
D03*
X7000Y25750D02*
D03*
X7950Y3750D02*
D03*
X2550Y24000D02*
D03*
X17200Y16750D02*
D03*
X7050Y3750D02*
D03*
X3450Y16500D02*
D03*
X3450Y19000D02*
D03*
X3200Y28000D02*
D03*
X3450Y24000D02*
D03*
X7900Y25750D02*
D03*
X16300Y13750D02*
D03*
X16300Y15251D02*
D03*
X16300Y16750D02*
D03*
X17200Y15251D02*
D03*
X17200Y13750D02*
D03*
X2550Y16500D02*
D03*
X2550Y19000D02*
D03*
X2300Y28000D02*
D03*
X17450Y20250D02*
D03*
X16200Y8250D02*
D03*
X10800Y18500D02*
D03*
X16550Y20250D02*
D03*
D27*
X9500Y30050D02*
D03*
X10500D02*
D03*
X11000Y6450D02*
D03*
X9000Y30050D02*
D03*
X9500Y26450D02*
D03*
X11000Y30050D02*
D03*
X11000Y10050D02*
D03*
X10000D02*
D03*
X11000Y26450D02*
D03*
X9000Y10050D02*
D03*
Y26450D02*
D03*
X10500D02*
D03*
Y6450D02*
D03*
X10000Y26450D02*
D03*
X9000Y6450D02*
D03*
X10500Y10050D02*
D03*
X9500D02*
D03*
X10000Y6450D02*
D03*
X9500D02*
D03*
X10000Y30050D02*
D03*
D28*
X8250Y14200D02*
D03*
Y12300D02*
D03*
D29*
X15000Y20000D02*
D03*
X15000Y21500D02*
D03*
D30*
X12700Y8250D02*
D03*
X7300D02*
D03*
X12700Y28250D02*
D03*
X7300D02*
D03*
D31*
X19000Y30410D02*
D03*
X15715Y12399D02*
D03*
X999Y30410D02*
D03*
X4285Y12399D02*
D03*
X5555Y12399D02*
D03*
X14445Y12399D02*
D03*
X999Y13900D02*
D03*
Y15170D02*
D03*
Y16440D02*
D03*
Y17710D02*
D03*
Y18980D02*
D03*
Y20250D02*
D03*
Y21520D02*
D03*
Y22790D02*
D03*
Y24060D02*
D03*
Y25330D02*
D03*
Y26600D02*
D03*
Y27870D02*
D03*
Y29140D02*
D03*
X19000Y13900D02*
D03*
Y15170D02*
D03*
Y16440D02*
D03*
Y17710D02*
D03*
Y18980D02*
D03*
Y20250D02*
D03*
Y21520D02*
D03*
Y22790D02*
D03*
Y24060D02*
D03*
Y25330D02*
D03*
Y26600D02*
D03*
Y27870D02*
D03*
Y29140D02*
D03*
D32*
X16000Y28250D02*
D03*
X4000Y8250D02*
D03*
D33*
X5250Y27000D02*
D03*
Y24500D02*
D03*
X13750Y30750D02*
D03*
D34*
X8830Y1500D02*
D03*
X11370D02*
D03*
X6290D02*
D03*
X13910D02*
D03*
X16450D02*
D03*
D35*
X3750D02*
D03*
M02*
