M48
;Layer_Color=9474304
;FILE_FORMAT=4:3
METRIC,LZ
;TYPE=PLATED
T01F00S00C0.300
T02F00S00C0.600
T03F00S00C0.700
T04F00S00C1.000
T05F00S00C1.800
%
T01
X0001Y000125
X00015Y00025
X000625Y000325
X0008Y000275
Y000475
X0009Y0005
X0011Y000475
X001175Y00055
Y00065
X0012Y000325
X001025Y0004
X001525Y000375
X00175
X001775Y000525
X0019Y00045
Y0006
Y00025
Y0001
X001825Y000925
X001925Y001
Y00115
X001825Y001275
X00165Y001025
X0015Y001
X00145Y000825
X0012Y00105
X001225Y00115
X0011Y0012
X0010957Y0013043
X001175Y001375
X000675Y00145
X000475Y00155
X000325Y0015
X0003Y0013
X000275Y001125
X000825Y0011275
Y001025
X000875Y001875
X000896Y0019937
Y0020662
X0008Y002125
X000775Y002225
X0007Y002425
X0008612Y002525
X001018Y0024366
X0011Y002375
X001175Y0025
X001275Y002575
X001325Y002675
X001375Y00245
X001475Y00255
X0015391Y0022679
X00126Y0021054
X0013Y00185
X0017Y001825
X00155Y0016
X000575Y0017
X000475Y0018
X00035Y001775
X000525Y00195
X000475Y00205
Y00225
X00035Y002325
X000305Y00217
X0002Y0021
X00025Y0027
X0004Y002775
X00065Y00265
X00072Y00193
X0008Y003025
X000825Y0031
X0009387Y00315
X0010113
X0010984Y0031501
X001175Y0031
Y003025
X00065Y0031
X000475
X000275
Y002975
T02
X000525Y00245
Y0027
X001375Y003075
T03
X0000999Y00139
Y001517
Y001517
Y001644
Y001771
Y001898
Y001898
Y002025
Y002152
Y002279
Y002406
Y002533
Y002533
Y00266
Y002787
Y002914
Y002914
X0019
Y002914
Y002787
Y00266
Y002533
Y002533
Y002406
Y002279
Y002152
Y002025
Y001898
Y001898
Y001771
Y001644
Y001517
Y001517
Y00139
X0015715Y0012399
X0015715
X0014445
X0005555
X0005555Y0012399
X0004285Y0012399
X0000999Y003041
X0019
T04
X000375Y00015
X000629
X000883
X001137
X001391
X001645
T05
X0004Y000825
X0016Y002825
M30
